<?xml version="1.0" encoding="UTF-8"?>
<svg id="Layer_2" xmlns="http://www.w3.org/2000/svg" version="1.1" width="26" height="26" viewBox="0 0 338.82 451.44">
  <!-- Generator: Adobe Illustrator 29.5.0, SVG Export Plug-In . SVG Version: 2.1.0 Build 137)  -->
  <defs>
    <style>
      .st0 {
        fill: #00ce97;
      }

      .st1 {
        fill: #007dff;
      }
    </style>
  </defs>
  <path class="st1" d="M338.14,128.54V22.65c0-11.97-9.68-21.65-21.65-21.65h-105.89c-11.97,0-21.65,9.71-21.65,21.65v105.89c0,11.97,9.71,21.65,21.65,21.65h105.89c11.97,0,21.65-9.71,21.65-21.65h0Z"/>
  <path class="st1" d="M150.13,428.64V22.65c0-11.97-9.71-21.65-21.65-21.65H22.59C10.65,1,.93,10.71.93,22.65v405.99c0,11.97,9.71,21.65,21.65,21.65h105.89c11.97,0,21.65-9.71,21.65-21.65h0Z"/>
  <path class="st0" d="M331.33,250.54l-53.12-53.12c-8.65-8.65-22.68-8.65-31.33,0l-53.12,53.12c-8.65,8.69-8.65,22.68,0,31.33l53.12,53.12c8.65,8.65,22.68,8.65,31.33,0l53.12-53.12c8.65-8.65,8.65-22.68,0-31.33ZM293.12,274.14l-23.6,23.63c-3.83,3.83-10.09,3.83-13.92,0l-23.63-23.63c-3.83-3.83-3.83-10.09,0-13.95l23.6-23.63c3.83-3.83,10.09-3.83,13.92,0l23.63,23.63c3.83,3.83,3.83,10.09,0,13.95Z"/>
</svg>