<?xml version="1.0" encoding="UTF-8"?>
<svg id="Layer_2" xmlns="http://www.w3.org/2000/svg" version="1.1" viewBox="0 0 705.19 98.35">
  <!-- Generator: Adobe Illustrator 29.5.0, SVG Export Plug-In . SVG Version: 2.1.0 Build 137)  -->
  <defs>
    <style>
      .st0 {
        fill: #00ce97;
      }

      .st1 {
        fill: #007dff;
      }
    </style>
  </defs>
  <path class="st1" d="M658.42,71.31v-12.12h34.61c2.42,0,4.39-1.97,4.39-4.39v-13.62c0-2.42-1.97-4.39-4.39-4.39h-34.61v-10.81h40.01c2.42,0,4.39-1.97,4.39-4.39V6.92c0-2.42-1.97-4.39-4.39-4.39h-66.19c-2.42,0-4.39,1.97-4.39,4.39v83.45c0,2.42,1.97,4.39,4.39,4.39h67.9c2.42,0,4.39-1.96,4.39-4.39v-14.67c0-2.42-1.97-4.39-4.39-4.39,0,0-41.72,0-41.72,0ZM584.39,5.23l-21.41,51.19-20.88-51.16c-.67-1.65-2.28-2.73-4.07-2.73h-23.89c-3.15,0-5.27,3.21-4.04,6.1l35.28,83.45c.69,1.62,2.28,2.68,4.04,2.68h24.75c1.76,0,3.36-1.06,4.04-2.68l35.28-83.45c1.22-2.9-.9-6.1-4.04-6.1h-21.02c-1.77,0-3.37,1.06-4.06,2.7h0ZM461.71,56.28l8.96-23.19,8.96,23.19h-17.92ZM493.65,94.76h22.42c3.17,0,5.29-3.25,4.02-6.15L483.61,5.16c-.7-1.6-2.28-2.63-4.02-2.63h-24.83c-1.75,0-3.32,1.04-4.02,2.63l-36.48,83.45c-1.27,2.9.86,6.15,4.02,6.15h21.89c1.82,0,3.44-1.12,4.09-2.81l5.1-13.26h35.05l5.1,13.26c.65,1.7,2.28,2.81,4.09,2.81h.04,0ZM391.3,5.58l-16.01,50.05-15.13-49.97c-.56-1.85-2.27-3.12-4.21-3.12h-22.14c-1.9,0-3.59,1.22-4.18,3.03l-16.01,49.4-15.13-49.34c-.56-1.85-2.27-3.11-4.19-3.11h-22.75c-2.97,0-5.09,2.9-4.18,5.73l26.7,83.45c.59,1.82,2.27,3.06,4.18,3.06h26.92c1.91,0,3.61-1.24,4.18-3.06l14.7-46.22,13.94,46.16c.56,1.86,2.27,3.12,4.21,3.12h26.87c1.91,0,3.61-1.24,4.18-3.06l26.7-83.45c.91-2.83-1.21-5.73-4.18-5.73h-20.29c-1.91,0-3.61,1.24-4.18,3.06h.01ZM95.18,94.76h63.94c2.42,0,4.39-1.96,4.39-4.39v-15.33c0-2.42-1.97-4.39-4.39-4.39h-37.24V6.92c0-2.42-1.96-4.39-4.39-4.39h-22.32c-2.42,0-4.39,1.97-4.39,4.39v83.45c0,2.42,1.96,4.39,4.39,4.39h.01ZM77.17,21.6V6.93c0-2.42-1.97-4.39-4.39-4.39H6.59c-2.42,0-4.39,1.97-4.39,4.39v83.45c0,2.42,1.96,4.39,4.39,4.39h22.32c2.42,0,4.39-1.96,4.39-4.39v-25.12h34.09c2.42,0,4.39-1.97,4.39-4.39v-14.67c0-2.42-1.97-4.39-4.39-4.39h-34.09v-15.81h39.48c2.42,0,4.39-1.97,4.39-4.39h0Z"/>
  <path class="st0" d="M256.1,39.27L222.75,5.91c-5.43-5.43-14.26-5.43-19.69,0l-33.36,33.36c-5.43,5.44-5.43,14.26,0,19.7l33.36,33.36c5.43,5.43,14.26,5.43,19.69,0l33.36-33.36c5.43-5.43,5.43-14.26,0-19.69h0ZM231.42,53.94l-14.3,14.3c-2.33,2.33-6.1,2.33-8.44,0l-14.3-14.31c-2.33-2.33-2.33-6.11,0-8.44l14.3-14.3c2.33-2.33,6.1-2.33,8.44,0l14.3,14.31c2.33,2.33,2.33,6.11,0,8.44Z"/>
</svg>